<mxfile host="app.diagrams.net" agent="Mozilla/5.0 (Macintosh; Intel Mac OS X 10_15_7) AppleWebKit/537.36 (KHTML, like Gecko) Chrome/137.0.0.0 Safari/537.36" version="27.1.4">
  <diagram name="Page-1" id="AaFwnaBkZ5P-QmC4tmMk">
    <mxGraphModel dx="671" dy="704" grid="1" gridSize="10" guides="1" tooltips="1" connect="1" arrows="1" fold="1" page="1" pageScale="1" pageWidth="827" pageHeight="1169" math="0" shadow="0">
      <root>
        <mxCell id="0" />
        <mxCell id="1" parent="0" />
        <mxCell id="YGmqCmIRLT2462OvAjHI-1" value="" style="outlineConnect=0;dashed=0;verticalLabelPosition=bottom;verticalAlign=top;align=center;html=1;shape=mxgraph.aws3.route_53;fillColor=#F58536;gradientColor=none;" vertex="1" parent="1">
          <mxGeometry x="149" y="290" width="70.5" height="85.5" as="geometry" />
        </mxCell>
        <mxCell id="YGmqCmIRLT2462OvAjHI-19" style="rounded=0;orthogonalLoop=1;jettySize=auto;html=1;" edge="1" parent="1" target="YGmqCmIRLT2462OvAjHI-10">
          <mxGeometry relative="1" as="geometry">
            <mxPoint x="410" y="360" as="sourcePoint" />
          </mxGeometry>
        </mxCell>
        <mxCell id="YGmqCmIRLT2462OvAjHI-3" value="" style="points=[];aspect=fixed;html=1;align=center;shadow=0;dashed=0;fillColor=#FF6A00;strokeColor=none;shape=mxgraph.alibaba_cloud.eventbridge;" vertex="1" parent="1">
          <mxGeometry x="380" y="290" width="68.9" height="68.9" as="geometry" />
        </mxCell>
        <mxCell id="YGmqCmIRLT2462OvAjHI-4" value="" style="outlineConnect=0;dashed=0;verticalLabelPosition=bottom;verticalAlign=top;align=center;html=1;shape=mxgraph.aws3.ses;fillColor=#D9A741;gradientColor=none;" vertex="1" parent="1">
          <mxGeometry x="140" y="420" width="79.5" height="93" as="geometry" />
        </mxCell>
        <mxCell id="YGmqCmIRLT2462OvAjHI-21" style="edgeStyle=orthogonalEdgeStyle;rounded=0;orthogonalLoop=1;jettySize=auto;html=1;exitX=0.25;exitY=0;exitDx=0;exitDy=0;exitPerimeter=0;strokeColor=default;startArrow=classic;startFill=0;endArrow=none;" edge="1" parent="1" source="YGmqCmIRLT2462OvAjHI-5">
          <mxGeometry relative="1" as="geometry">
            <mxPoint x="393.17073170731715" y="520" as="targetPoint" />
          </mxGeometry>
        </mxCell>
        <mxCell id="YGmqCmIRLT2462OvAjHI-5" value="" style="sketch=0;points=[[0,0,0],[0.25,0,0],[0.5,0,0],[0.75,0,0],[1,0,0],[0,1,0],[0.25,1,0],[0.5,1,0],[0.75,1,0],[1,1,0],[0,0.25,0],[0,0.5,0],[0,0.75,0],[1,0.25,0],[1,0.5,0],[1,0.75,0]];outlineConnect=0;fontColor=#232F3E;fillColor=#C925D1;strokeColor=#ffffff;dashed=0;verticalLabelPosition=bottom;verticalAlign=top;align=center;html=1;fontSize=12;fontStyle=0;aspect=fixed;shape=mxgraph.aws4.resourceIcon;resIcon=mxgraph.aws4.dynamodb;" vertex="1" parent="1">
          <mxGeometry x="373.5" y="610" width="78" height="78" as="geometry" />
        </mxCell>
        <mxCell id="YGmqCmIRLT2462OvAjHI-6" value="" style="outlineConnect=0;dashed=0;verticalLabelPosition=bottom;verticalAlign=top;align=center;html=1;shape=mxgraph.aws3.ses;fillColor=#D9A741;gradientColor=none;" vertex="1" parent="1">
          <mxGeometry x="586" y="421" width="79.5" height="93" as="geometry" />
        </mxCell>
        <mxCell id="YGmqCmIRLT2462OvAjHI-26" style="edgeStyle=orthogonalEdgeStyle;rounded=0;orthogonalLoop=1;jettySize=auto;html=1;exitX=1;exitY=0.5;exitDx=0;exitDy=0;exitPerimeter=0;" edge="1" parent="1" source="YGmqCmIRLT2462OvAjHI-10">
          <mxGeometry relative="1" as="geometry">
            <mxPoint x="580" y="466.4375" as="targetPoint" />
          </mxGeometry>
        </mxCell>
        <mxCell id="YGmqCmIRLT2462OvAjHI-10" value="" style="outlineConnect=0;dashed=0;verticalLabelPosition=bottom;verticalAlign=top;align=center;html=1;shape=mxgraph.aws3.lambda;fillColor=#F58534;gradientColor=none;" vertex="1" parent="1">
          <mxGeometry x="372.4" y="420" width="76.5" height="93" as="geometry" />
        </mxCell>
        <mxCell id="YGmqCmIRLT2462OvAjHI-11" value="" style="outlineConnect=0;dashed=0;verticalLabelPosition=bottom;verticalAlign=top;align=center;html=1;shape=mxgraph.aws3.lambda;fillColor=#F58534;gradientColor=none;" vertex="1" parent="1">
          <mxGeometry x="200" y="470" width="40" height="43" as="geometry" />
        </mxCell>
        <mxCell id="YGmqCmIRLT2462OvAjHI-12" value="" style="outlineConnect=0;dashed=0;verticalLabelPosition=bottom;verticalAlign=top;align=center;html=1;shape=mxgraph.aws3.lambda;fillColor=#F58534;gradientColor=none;" vertex="1" parent="1">
          <mxGeometry x="650" y="470" width="40" height="43" as="geometry" />
        </mxCell>
        <mxCell id="YGmqCmIRLT2462OvAjHI-13" value="Route 53 Domain" style="text;html=1;align=center;verticalAlign=middle;whiteSpace=wrap;rounded=0;" vertex="1" parent="1">
          <mxGeometry x="109.25" y="260" width="150" height="30" as="geometry" />
        </mxCell>
        <mxCell id="YGmqCmIRLT2462OvAjHI-14" value="SES Receiver&lt;div&gt;Lambda Processor&lt;/div&gt;" style="text;html=1;align=center;verticalAlign=middle;whiteSpace=wrap;rounded=0;" vertex="1" parent="1">
          <mxGeometry x="20" y="451.5" width="150" height="30" as="geometry" />
        </mxCell>
        <mxCell id="YGmqCmIRLT2462OvAjHI-15" style="rounded=0;orthogonalLoop=1;jettySize=auto;html=1;entryX=0.58;entryY=0;entryDx=0;entryDy=0;entryPerimeter=0;" edge="1" parent="1" target="YGmqCmIRLT2462OvAjHI-4">
          <mxGeometry relative="1" as="geometry">
            <mxPoint x="186" y="380" as="sourcePoint" />
          </mxGeometry>
        </mxCell>
        <mxCell id="YGmqCmIRLT2462OvAjHI-16" style="edgeStyle=orthogonalEdgeStyle;rounded=0;orthogonalLoop=1;jettySize=auto;html=1;exitX=0.5;exitY=1;exitDx=0;exitDy=0;exitPerimeter=0;entryX=0;entryY=0.5;entryDx=0;entryDy=0;entryPerimeter=0;" edge="1" parent="1" source="YGmqCmIRLT2462OvAjHI-4" target="YGmqCmIRLT2462OvAjHI-5">
          <mxGeometry relative="1" as="geometry" />
        </mxCell>
        <mxCell id="YGmqCmIRLT2462OvAjHI-20" value="EventBridge Trigger" style="text;html=1;align=center;verticalAlign=middle;whiteSpace=wrap;rounded=0;" vertex="1" parent="1">
          <mxGeometry x="339" y="260" width="150" height="30" as="geometry" />
        </mxCell>
        <mxCell id="YGmqCmIRLT2462OvAjHI-22" style="edgeStyle=orthogonalEdgeStyle;rounded=0;orthogonalLoop=1;jettySize=auto;html=1;exitX=0.25;exitY=0;exitDx=0;exitDy=0;exitPerimeter=0;" edge="1" parent="1">
          <mxGeometry relative="1" as="geometry">
            <mxPoint x="430.17073170731715" y="520" as="targetPoint" />
            <mxPoint x="430" y="610" as="sourcePoint" />
          </mxGeometry>
        </mxCell>
        <mxCell id="YGmqCmIRLT2462OvAjHI-23" value="Lambda TMDB&lt;div&gt;Scanner&lt;/div&gt;" style="text;html=1;align=center;verticalAlign=middle;whiteSpace=wrap;rounded=0;" vertex="1" parent="1">
          <mxGeometry x="250" y="451.5" width="150" height="30" as="geometry" />
        </mxCell>
        <mxCell id="YGmqCmIRLT2462OvAjHI-24" value="DynamoDB Table" style="text;html=1;align=center;verticalAlign=middle;whiteSpace=wrap;rounded=0;" vertex="1" parent="1">
          <mxGeometry x="430" y="634" width="150" height="30" as="geometry" />
        </mxCell>
        <mxCell id="YGmqCmIRLT2462OvAjHI-27" value="Lambda &amp;amp; SES Sender" style="text;html=1;align=center;verticalAlign=middle;whiteSpace=wrap;rounded=0;" vertex="1" parent="1">
          <mxGeometry x="562" y="390" width="150" height="30" as="geometry" />
        </mxCell>
      </root>
    </mxGraphModel>
  </diagram>
</mxfile>
